{
	"asset":{
		"generator":"Khronos glTF Blender I/O v4.1.63",
		"version":"2.0"
	},
	"scene":0,
	"scenes":[
		{
			"name":"Scene",
			"nodes":[
				0
			]
		}
	],
	"nodes":[
		{
			"mesh":0,
			"name":"mt",
			"rotation":[
				0.7071066498756409,
				0,
				0,
				-0.70710688829422
			]
		}
	],
	"materials":[
		{
			"doubleSided":true,
			"name":"mt",
			"pbrMetallicRoughness":{
				"baseColorTexture":{
					"index":0
				},
				"metallicFactor":0,
				"roughnessFactor":0.6000000238418579
			}
		},
		{
			"doubleSided":true,
			"name":"mt_Kart_Tire_S",
			"pbrMetallicRoughness":{
				"baseColorTexture":{
					"index":1
				},
				"metallicFactor":0,
				"roughnessFactor":0.6000000238418579
			}
		},
		{
			"doubleSided":true,
			"name":"mt_kart_S",
			"pbrMetallicRoughness":{
				"baseColorTexture":{
					"index":2
				},
				"metallicFactor":0,
				"roughnessFactor":0.6000000238418579
			}
		}
	],
	"meshes":[
		{
			"name":"mt",
			"primitives":[
				{
					"attributes":{
						"POSITION":0,
						"NORMAL":1,
						"TEXCOORD_0":2,
						"COLOR_0":3
					},
					"indices":4,
					"material":0
				},
				{
					"attributes":{
						"POSITION":5,
						"NORMAL":6,
						"TEXCOORD_0":7,
						"COLOR_0":8
					},
					"indices":9,
					"material":1
				},
				{
					"attributes":{
						"POSITION":10,
						"NORMAL":11,
						"TEXCOORD_0":12,
						"COLOR_0":13
					},
					"indices":14,
					"material":2
				}
			]
		}
	],
	"textures":[
		{
			"sampler":0,
			"source":0
		},
		{
			"sampler":0,
			"source":1
		},
		{
			"sampler":0,
			"source":2
		}
	],
	"images":[
		{
			"mimeType":"image/png",
			"name":"mt_baseColor",
			"uri":"mt_baseColor.png"
		},
		{
			"mimeType":"image/png",
			"name":"mt_Kart_Tire_S_baseColor",
			"uri":"mt_Kart_Tire_S_baseColor.png"
		},
		{
			"mimeType":"image/png",
			"name":"mt_kart_S_baseColor",
			"uri":"mt_kart_S_baseColor.png"
		}
	],
	"accessors":[
		{
			"bufferView":0,
			"componentType":5126,
			"count":314,
			"max":[
				0.27601999044418335,
				1.163949966430664,
				0.5807949900627136
			],
			"min":[
				-0.27884501218795776,
				0.11132100224494934,
				-0.2867569923400879
			],
			"type":"VEC3"
		},
		{
			"bufferView":1,
			"componentType":5126,
			"count":314,
			"type":"VEC3"
		},
		{
			"bufferView":2,
			"componentType":5126,
			"count":314,
			"type":"VEC2"
		},
		{
			"bufferView":3,
			"componentType":5126,
			"count":314,
			"type":"VEC3"
		},
		{
			"bufferView":4,
			"componentType":5123,
			"count":1137,
			"type":"SCALAR"
		},
		{
			"bufferView":5,
			"componentType":5126,
			"count":208,
			"max":[
				0.6179779767990112,
				0.43970099091529846,
				0.6250439882278442
			],
			"min":[
				-0.6179779767990112,
				-0.0012316700303927064,
				-0.5712739825248718
			],
			"type":"VEC3"
		},
		{
			"bufferView":6,
			"componentType":5126,
			"count":208,
			"type":"VEC3"
		},
		{
			"bufferView":7,
			"componentType":5126,
			"count":208,
			"type":"VEC2"
		},
		{
			"bufferView":8,
			"componentType":5126,
			"count":208,
			"type":"VEC3"
		},
		{
			"bufferView":9,
			"componentType":5123,
			"count":576,
			"type":"SCALAR"
		},
		{
			"bufferView":10,
			"componentType":5126,
			"count":478,
			"max":[
				0.6250900030136108,
				0.6246309876441956,
				1.0730700492858887
			],
			"min":[
				-0.6233540177345276,
				0.0468796007335186,
				-0.9783290028572083
			],
			"type":"VEC3"
		},
		{
			"bufferView":11,
			"componentType":5126,
			"count":478,
			"type":"VEC3"
		},
		{
			"bufferView":12,
			"componentType":5126,
			"count":478,
			"type":"VEC2"
		},
		{
			"bufferView":13,
			"componentType":5126,
			"count":478,
			"type":"VEC3"
		},
		{
			"bufferView":14,
			"componentType":5123,
			"count":1083,
			"type":"SCALAR"
		}
	],
	"bufferViews":[
		{
			"buffer":0,
			"byteLength":3768,
			"byteOffset":0,
			"target":34962
		},
		{
			"buffer":0,
			"byteLength":3768,
			"byteOffset":3768,
			"target":34962
		},
		{
			"buffer":0,
			"byteLength":2512,
			"byteOffset":7536,
			"target":34962
		},
		{
			"buffer":0,
			"byteLength":3768,
			"byteOffset":10048,
			"target":34962
		},
		{
			"buffer":0,
			"byteLength":2274,
			"byteOffset":13816,
			"target":34963
		},
		{
			"buffer":0,
			"byteLength":2496,
			"byteOffset":16092,
			"target":34962
		},
		{
			"buffer":0,
			"byteLength":2496,
			"byteOffset":18588,
			"target":34962
		},
		{
			"buffer":0,
			"byteLength":1664,
			"byteOffset":21084,
			"target":34962
		},
		{
			"buffer":0,
			"byteLength":2496,
			"byteOffset":22748,
			"target":34962
		},
		{
			"buffer":0,
			"byteLength":1152,
			"byteOffset":25244,
			"target":34963
		},
		{
			"buffer":0,
			"byteLength":5736,
			"byteOffset":26396,
			"target":34962
		},
		{
			"buffer":0,
			"byteLength":5736,
			"byteOffset":32132,
			"target":34962
		},
		{
			"buffer":0,
			"byteLength":3824,
			"byteOffset":37868,
			"target":34962
		},
		{
			"buffer":0,
			"byteLength":5736,
			"byteOffset":41692,
			"target":34962
		},
		{
			"buffer":0,
			"byteLength":2166,
			"byteOffset":47428,
			"target":34963
		}
	],
	"samplers":[
		{
			"magFilter":9729,
			"minFilter":9987
		}
	],
	"buffers":[
		{
			"byteLength":49596,
			"uri":"kart2.bin"
		}
	]
}
