{
	"asset":{
		"generator":"Khronos glTF Blender I/O v4.1.63",
		"version":"2.0"
	},
	"scene":0,
	"scenes":[
		{
			"name":"Scene",
			"nodes":[
				0
			]
		}
	],
	"nodes":[
		{
			"mesh":0,
			"name":"Plane"
		}
	],
	"materials":[
		{
			"doubleSided":true,
			"name":"Material",
			"pbrMetallicRoughness":{
				"baseColorTexture":{
					"index":0
				},
				"metallicFactor":0
			}
		},
		{
			"doubleSided":true,
			"name":"Brick.001",
			"pbrMetallicRoughness":{
				"baseColorFactor":[
					0.0,
					0.0,
					0.0,
					1
				],
				"metallicFactor":0,
				"roughnessFactor":0.5
			}
		},
		{
			"doubleSided":true,
			"name":"Brick",
			"pbrMetallicRoughness":{
				"baseColorFactor":[
					0.43823646306991577,
					0.43823646306991577,
					0.43823646306991577,
					1
				],
				"metallicFactor":0,
				"roughnessFactor":0.5
			}
		}
	],
	"meshes":[
		{
			"name":"All",
			"primitives":[
				{
					"attributes":{
						"POSITION":0,
						"NORMAL":1,
						"TEXCOORD_0":2
					},
					"indices":3,
					"material":0
				},
				{
					"attributes":{
						"POSITION":4,
						"NORMAL":5
					},
					"indices":7,
					"material":1
				},
				{
					"attributes":{
						"POSITION":8,
						"NORMAL":9
					},
					"indices":11,
					"material":2
				}
			]
		}
	],
	"textures":[
		{
			"sampler":0,
			"source":0
		}
	],
	"images":[
		{
			"mimeType":"image/png",
			"name":"Color",
			"uri":"Color.png"
		}
	],
	"accessors":[
		{
			"bufferView":0,
			"componentType":5126,
			"count":5540,
			"max":[
				300,
				117.52729034423828,
				300
			],
			"min":[
				-300,
				-0.16881422698497772,
				-300
			],
			"type":"VEC3"
		},
		{
			"bufferView":1,
			"componentType":5126,
			"count":5540,
			"type":"VEC3"
		},
		{
			"bufferView":2,
			"componentType":5126,
			"count":5540,
			"type":"VEC2"
		},
		{
			"bufferView":3,
			"componentType":5123,
			"count":26613,
			"type":"SCALAR"
		},
		{
			"bufferView":4,
			"componentType":5126,
			"count":312,
			"max":[
				92.74613189697266,
				29.336727142333984,
				47.5762825012207
			],
			"min":[
				-89.81542205810547,
				-0.5276870727539062,
				-34.045631408691406
			],
			"type":"VEC3"
		},
		{
			"bufferView":5,
			"componentType":5126,
			"count":312,
			"type":"VEC3"
		},
		{
			"bufferView":6,
			"componentType":5126,
			"count":312,
			"type":"VEC2"
		},
		{
			"bufferView":7,
			"componentType":5123,
			"count":468,
			"type":"SCALAR"
		},
		{
			"bufferView":8,
			"componentType":5126,
			"count":1080,
			"max":[
				92.7471923828125,
				29.972335815429688,
				47.57730484008789
			],
			"min":[
				-89.81631469726562,
				-0.5277023315429688,
				-34.04624557495117
			],
			"type":"VEC3"
		},
		{
			"bufferView":9,
			"componentType":5126,
			"count":1080,
			"type":"VEC3"
		},
		{
			"bufferView":10,
			"componentType":5126,
			"count":1080,
			"type":"VEC2"
		},
		{
			"bufferView":11,
			"componentType":5123,
			"count":1836,
			"type":"SCALAR"
		}
	],
	"bufferViews":[
		{
			"buffer":0,
			"byteLength":66480,
			"byteOffset":0,
			"target":34962
		},
		{
			"buffer":0,
			"byteLength":66480,
			"byteOffset":66480,
			"target":34962
		},
		{
			"buffer":0,
			"byteLength":44320,
			"byteOffset":132960,
			"target":34962
		},
		{
			"buffer":0,
			"byteLength":53226,
			"byteOffset":177280,
			"target":34963
		},
		{
			"buffer":0,
			"byteLength":3744,
			"byteOffset":230508,
			"target":34962
		},
		{
			"buffer":0,
			"byteLength":3744,
			"byteOffset":234252,
			"target":34962
		},
		{
			"buffer":0,
			"byteLength":2496,
			"byteOffset":237996,
			"target":34962
		},
		{
			"buffer":0,
			"byteLength":936,
			"byteOffset":240492,
			"target":34963
		},
		{
			"buffer":0,
			"byteLength":12960,
			"byteOffset":241428,
			"target":34962
		},
		{
			"buffer":0,
			"byteLength":12960,
			"byteOffset":254388,
			"target":34962
		},
		{
			"buffer":0,
			"byteLength":8640,
			"byteOffset":267348,
			"target":34962
		},
		{
			"buffer":0,
			"byteLength":3672,
			"byteOffset":275988,
			"target":34963
		}
	],
	"samplers":[
		{
			"magFilter":9729,
			"minFilter":9987
		}
	],
	"buffers":[
		{
			"byteLength":279660,
			"uri":"racing_mountain5.bin"
		}
	]
}
